<?xml version="1.0" ?><svg data-name="Layer 2" id="b358115f-aac5-433e-abfb-db94c4f227b5" viewBox="0 0 38 38" xmlns="http://www.w3.org/2000/svg"><circle cx="19" cy="11.692" r="1.878"/><path d="M20.834,27.03a1.985,1.985,0,0,1-1.034-.823l.871-7.63c0-.019,0-.036,0-.054s.008-.03.01-.046a2.038,2.038,0,0,0-1.345-2.156,2.19,2.19,0,0,0-.451-.1,2.031,2.031,0,0,0-2.034,1.066,1.7,1.7,0,0,1,.313.076,2.039,2.039,0,0,1,1.034.821l-.883,7.732a2.038,2.038,0,0,0,1.335,2.155c.009.011.01,0,.01,0a2.19,2.19,0,0,0,.451.1,2.03,2.03,0,0,0,2.034-1.066A1.7,1.7,0,0,1,20.834,27.03Z"/></svg>